# xmcd
#
# Track frame offsets:
#	150
#	12772
#	25839
#	39862
#	54155
#	67952
#	81363
#	93664
#	106778
#	121563
#	134916
#	146020
#	159040
#	173578
#	184407
#	197464
#	210270
#	220903
#	235950
#	250008
#	262724
#	280363
#	294288
#	311908
#	324571
#
# Disc length: 4502 seconds
#
# Revision: 1
# Processed by: cddbd v1.5.2PL0 Copyright (c) Steve Scherf et al.
# Submitted via: audiograbber 1.83.01
#
DISCID=51119419
DTITLE=MUDDY WATERS - Chess Box CD 2
DYEAR=1900
DGENRE=
TTITLE0=Double Trouble
TTITLE1=I Just Want To Make Love To Yo
TTITLE2=I'm Ready
TTITLE3=Smokestack Lightnin'
TTITLE4=Young Fashioned Ways
TTITLE5=Mannish Boy
TTITLE6=Trouble No More
TTITLE7=Forty Days And Forty Nights
TTITLE8=Just To Be With You
TTITLE9=Don't Go No Farther
TTITLE10=Diamonds At Your Feet
TTITLE11=I Love The Life I Live, I Live
TTITLE12=Rock Me
TTITLE13=Look What You Done
TTITLE14=Got My Mojo Working
TTITLE15=Good News
TTITLE16=Evil
TTITLE17=She's Nineteen Years Old
TTITLE18=Close To You
TTITLE19=Walkin' Thru The Park
TTITLE20=Blues Before Sunrise (with fal
TTITLE21=Lonesome Road Blues
TTITLE22=Take the Bitter With The Sweet
TTITLE23=She's Into Something
TTITLE24=Southbound Train
EXTD=
EXTT0=
EXTT1=
EXTT2=
EXTT3=
EXTT4=
EXTT5=
EXTT6=
EXTT7=
EXTT8=
EXTT9=
EXTT10=
EXTT11=
EXTT12=
EXTT13=
EXTT14=
EXTT15=
EXTT16=
EXTT17=
EXTT18=
EXTT19=
EXTT20=
EXTT21=
EXTT22=
EXTT23=
EXTT24=
PLAYORDER=
